<?xml version="1.0" standalone="no"?>
<!DOCTYPE svg PUBLIC "-//W3C//DTD SVG 20010904//EN"
 "http://www.w3.org/TR/2001/REC-SVG-20010904/DTD/svg10.dtd">
<svg version="1.0" xmlns="http://www.w3.org/2000/svg"
 width="974.000000pt" height="974.000000pt" viewBox="0 0 974.000000 974.000000"
 preserveAspectRatio="xMidYMid meet">
<metadata>
Created by potrace 1.11, written by Peter Selinger 2001-2013
</metadata>
<g transform="translate(0.000000,974.000000) scale(0.100000,-0.100000)"
fill="#000000" stroke="none">
<path d="M4696 9300 c-416 -40 -831 -161 -1040 -302 -86 -59 -402 -373 -515
-512 -204 -252 -278 -375 -360 -597 -93 -254 -102 -306 -127 -744 -25 -444
-15 -595 76 -1055 54 -275 53 -261 35 -426 -10 -82 -15 -176 -12 -209 6 -60
28 -128 46 -140 15 -9 57 81 71 150 8 39 15 222 19 515 l6 455 34 69 c18 38
66 117 106 175 95 139 107 165 208 432 99 263 126 321 175 371 49 52 102 66
282 78 167 10 225 22 480 98 303 91 397 102 862 102 416 0 525 -9 678 -54 512
-150 618 -189 707 -255 62 -45 85 -87 148 -266 126 -360 114 -333 173 -389 40
-38 66 -76 100 -145 l46 -95 2 -510 c1 -298 7 -540 13 -581 6 -38 11 -142 11
-230 0 -154 23 -345 42 -345 18 0 59 81 73 145 9 39 30 118 46 177 44 164 54
276 34 368 -68 303 -69 322 -15 540 91 366 95 394 93 615 -3 268 -28 713 -47
800 -32 151 -167 558 -227 682 -35 73 -57 100 -212 259 -218 225 -306 301
-465 406 -268 178 -502 290 -729 348 -234 61 -595 92 -817 70z"/>
<path d="M3522 6017 c-18 -7 -48 -25 -67 -40 -46 -37 -46 -70 0 -133 52 -72
58 -91 59 -177 1 -74 -1 -80 -26 -102 -29 -25 -104 -45 -167 -45 -50 0 -127
-52 -154 -103 -16 -31 -17 -42 -7 -72 11 -33 43 -65 65 -65 6 0 46 23 90 50
70 44 85 50 135 50 90 0 116 -20 171 -130 56 -112 88 -143 166 -166 114 -33
258 -2 346 76 53 46 109 51 182 16 30 -15 55 -31 55 -36 0 -5 17 -21 37 -35
66 -44 150 -28 222 43 38 38 53 65 81 140 32 89 33 97 23 156 -7 43 -25 88
-58 144 -64 111 -169 196 -356 288 -154 76 -248 101 -502 134 -176 22 -247 24
-295 7z"/>
<path d="M5677 5983 c-235 -24 -344 -39 -381 -54 -51 -19 -55 -23 -86 -90 -49
-106 -60 -153 -60 -248 0 -106 18 -148 87 -212 66 -62 120 -95 229 -141 155
-64 428 -122 497 -104 38 9 93 73 137 158 37 70 44 78 78 86 20 5 95 24 167
41 71 17 133 35 138 40 12 12 -48 68 -105 97 -27 14 -72 47 -100 74 l-51 49 7
53 c6 42 15 61 47 95 45 49 51 89 20 139 -40 65 -140 68 -624 17z"/>
<path d="M4343 4156 c-38 -17 -40 -27 -46 -156 -6 -152 -17 -164 -262 -288
-208 -106 -239 -137 -256 -259 -7 -50 -6 -78 7 -126 42 -166 92 -182 239 -82
126 87 188 105 362 105 102 0 136 9 153 40 17 31 -9 56 -100 98 -83 38 -180
106 -180 125 0 15 142 147 177 166 13 6 51 21 85 31 89 29 104 39 162 111 70
86 142 124 235 124 80 -1 151 -30 198 -80 18 -19 37 -35 42 -35 17 0 91 70
107 101 49 96 -35 142 -178 99 -81 -25 -100 -24 -308 10 -169 28 -394 36 -437
16z"/>
<path d="M6745 4118 c-11 -6 -65 -57 -120 -112 -112 -113 -149 -177 -220 -376
-21 -58 -55 -148 -76 -202 -32 -77 -39 -109 -39 -162 0 -59 3 -69 32 -102 18
-21 74 -64 125 -96 50 -32 100 -71 110 -86 16 -24 19 -59 24 -362 5 -268 10
-347 23 -395 14 -49 15 -84 10 -188 -6 -130 -1 -157 32 -157 15 0 85 102 128
187 36 71 77 116 152 164 51 33 66 50 80 85 22 57 17 85 -52 309 -80 257 -132
357 -263 497 -79 84 -111 143 -111 203 0 49 53 208 155 465 84 210 94 264 62
314 -19 29 -24 30 -52 14z"/>
<path d="M3450 4035 c-17 -21 -9 -217 10 -240 20 -24 81 -47 94 -36 7 6 18 33
25 61 13 50 13 50 -19 86 -17 20 -42 60 -55 90 -25 57 -35 64 -55 39z"/>
<path d="M3040 3912 c0 -47 29 -131 81 -235 71 -140 82 -192 83 -377 l1 -156
-54 -82 c-29 -44 -65 -110 -80 -144 -23 -57 -26 -74 -24 -173 2 -121 25 -272
78 -500 19 -82 42 -188 51 -234 25 -133 36 -148 179 -232 50 -28 108 -66 130
-82 71 -54 355 -339 431 -435 41 -51 103 -115 137 -143 64 -52 388 -263 465
-302 40 -20 45 -20 70 -6 15 8 45 45 67 82 46 78 65 87 185 87 147 1 289 48
423 143 112 80 155 96 318 120 78 12 106 21 140 45 67 46 138 125 228 251 79
111 81 116 81 172 0 80 -12 105 -69 140 -59 37 -71 64 -71 162 0 88 18 128
100 221 91 102 108 132 130 235 13 64 31 111 55 152 26 42 35 68 33 91 -4 44
-25 46 -100 13 -32 -15 -66 -24 -75 -21 -27 11 -137 -14 -174 -40 -19 -13 -60
-54 -90 -90 -68 -83 -178 -159 -245 -169 -26 -4 -111 -25 -188 -46 -173 -49
-240 -58 -431 -58 -224 0 -323 11 -445 52 -66 22 -135 38 -185 42 -116 10
-155 22 -202 65 -22 22 -65 51 -95 66 -29 14 -76 51 -103 80 -49 52 -52 54
-104 54 -53 0 -55 1 -120 66 l-66 65 -122 -3 c-115 -3 -124 -1 -145 19 -18 18
-22 34 -22 86 0 61 3 68 50 135 99 142 116 174 110 210 -3 18 -25 65 -49 103
-72 112 -130 253 -137 334 -5 58 -13 82 -48 141 -53 92 -91 124 -143 124 -36
0 -39 -2 -39 -28z"/>
<path d="M5633 3711 c-67 -8 -93 -32 -93 -85 0 -75 -6 -83 -78 -105 -88 -27
-125 -51 -146 -95 -34 -72 17 -96 161 -76 58 8 94 8 129 0 73 -17 193 -70 205
-91 12 -24 58 -25 101 -3 28 15 30 18 24 57 -17 105 -104 294 -168 363 -42 46
-43 46 -135 35z"/>
<path d="M4354 2956 c-32 -32 -34 -38 -34 -99 0 -75 24 -121 80 -150 31 -16
53 -18 175 -13 77 2 199 14 270 25 72 11 172 25 223 31 142 17 242 58 242 97
0 7 -17 36 -37 64 -33 47 -39 51 -67 45 -17 -3 -67 -12 -111 -21 -44 -8 -138
-18 -210 -21 -138 -6 -152 -4 -303 50 -48 17 -95 26 -134 26 -55 0 -63 -3 -94
-34z"/>
<path d="M3494 653 c-12 -10 -29 -32 -38 -49 -20 -41 -14 -45 88 -73 75 -21
149 -48 281 -105 33 -14 75 -26 93 -26 66 0 31 34 -142 138 -230 138 -246 145
-282 115z"/>
</g>
</svg>
